<?xml version="1.0" standalone="no"?>
<!DOCTYPE svg PUBLIC "-//W3C//DTD SVG 1.1//EN" "http://www.w3.org/Graphics/SVG/1.1/DTD/svg11.dtd" >
<svg xmlns="http://www.w3.org/2000/svg">
<metadata>
Created by FontForge 20120731 at Sun Jan 31 22:02:21 2016
 By Ads
</metadata>
<defs>
<font id="iconfont" horiz-adv-x="1024" >
  <font-face 
    font-family="iconfont"
    font-weight="500"
    font-stretch="normal"
    units-per-em="1024"
    panose-1="2 0 6 3 0 0 0 0 0 0"
    ascent="896"
    descent="-128"
    x-height="792"
    bbox="0 -224 1262 896"
    underline-thickness="50"
    underline-position="-100"
    unicode-range="U+0078-E618"
  />
<missing-glyph horiz-adv-x="374" 
d="M34 0v682h272v-682h-272zM68 34h204v614h-204v-614z" />
    <glyph glyph-name=".notdef" horiz-adv-x="374" 
d="M34 0v682h272v-682h-272zM68 34h204v614h-204v-614z" />
    <glyph glyph-name=".null" horiz-adv-x="0" 
 />
    <glyph glyph-name="nonmarkingreturn" horiz-adv-x="341" 
 />
    <glyph glyph-name="x" unicode="x" horiz-adv-x="1001" 
d="M281 543q-27 -1 -53 -1h-83q-18 0 -36.5 -6t-32.5 -18.5t-23 -32t-9 -45.5v-76h912v41q0 16 -0.5 30t-0.5 18q0 13 -5 29t-17 29.5t-31.5 22.5t-49.5 9h-133v-97h-438v97zM955 310v-52q0 -23 0.5 -52t0.5 -58t-10.5 -47.5t-26 -30t-33 -16t-31.5 -4.5q-14 -1 -29.5 -0.5
t-29.5 0.5h-32l-45 128h-439l-44 -128h-29h-34q-20 0 -45 1q-25 0 -41 9.5t-25.5 23t-13.5 29.5t-4 30v167h911zM163 247q-12 0 -21 -8.5t-9 -21.5t9 -21.5t21 -8.5q13 0 22 8.5t9 21.5t-9 21.5t-22 8.5zM316 123q-8 -26 -14 -48q-5 -19 -10.5 -37t-7.5 -25t-3 -15t1 -14.5
t9.5 -10.5t21.5 -4h37h67h81h80h64h36q23 0 34 12t2 38q-5 13 -9.5 30.5t-9.5 34.5q-5 19 -11 39h-368zM336 498v228q0 11 2.5 23t10 21.5t20.5 15.5t34 6h188q31 0 51.5 -14.5t20.5 -52.5v-227h-327z" />
    <glyph glyph-name="uniE600" unicode="&#xe600;" 
d="M772 -147h-519q-24 0 -40.5 17t-16.5 41v694q0 23 16.5 40t40.5 17h144v-60h-115q-12 0 -20.5 -8.5t-8.5 -20.5v-634q0 -12 8.5 -20t20.5 -8h461q12 0 20.5 8t8.5 20v634q0 12 -8.5 20.5t-20.5 8.5h-115v60h144q15 0 28.5 -7.5t21 -21t7.5 -28.5v-694q0 -16 -7.5 -29.5
t-21 -21t-28.5 -7.5zM397 430h317v-29h-317v29zM397 343h317v-28h-317v28zM397 257h317v-28h-317v28zM397 171h317v-29h-317v29zM714 -30h-317v29h317v-29zM397 85h317v-29h-317v29zM311 430h29v-28h-29v28zM311 344h29v-29h-29v29zM311 258h29v-29h-29v29zM311 172h29v-29
h-29v29zM340 -30h-29v29h29v-29zM311 85h29v-28h-29v28zM685 572q12 0 20.5 -8.5t8.5 -20.5v-56h-403v56q0 12 8.5 20.5t20.5 8.5h86v12v31v44q0 24 11.5 44.5t31.5 32.5t43.5 12t44 -12.5t32 -33t11.5 -43.5q0 -22 -0.5 -44t-0.5 -33v-10h86zM512 662q-6 0 -11 -2t-9 -6
t-6 -9.5t-2 -11.5q0 -7 3.5 -14t10.5 -10.5t14 -3.5q12 0 20.5 8t8.5 20t-8.5 20.5t-20.5 8.5z" />
    <glyph glyph-name="uniE601" unicode="&#xe601;" 
d="M826 257v-404h-628v404h-177l491 491l490 -491h-176zM616 257h-208v-208h208v208z" />
    <glyph glyph-name="uniE602" unicode="&#xe602;" 
d="M747 493q0 -51 -19 -98.5t-50.5 -81.5t-75 -54t-92.5 -20q-64 0 -118 34t-86 92.5t-32 127.5t32 128t86 93t118.5 34t118.5 -34t86 -93t32 -128zM21 -146q2 9 7.5 24.5t28.5 60t54.5 84.5t89.5 88t129 81l368 -2q5 -2 13.5 -6t34.5 -19t50.5 -32t57 -46t58.5 -61.5
t50.5 -77.5t37.5 -94h-979z" />
    <glyph glyph-name="uniE603" unicode="&#xe603;" 
d="M64 364h256v-512h-256v512zM704 556h256v-704h-256v704zM384 748h256v-896h-256v896z" />
    <glyph glyph-name="uniE604" unicode="&#xe604;" horiz-adv-x="1262" 
d="M1136 556q-12 98 -45 175t-83 121t-108 44l-541 -1q-87 0 -152.5 -96t-82.5 -245q-30 -18 -53.5 -45.5t-39 -62t-23.5 -74t-8 -82.5q0 -135 70 -217v-191h213v112l697 2l1 -112l212 1v191q69 82 69 217q0 88 -32.5 157.5t-93.5 105.5zM359 822l542 1q55 0 101 -67.5
t65 -173.5q-8 2 -17.5 3t-18.5 2v1h-55h-28q-7 0 -20.5 -0.5t-38.5 -0.5h-59h-59l-524 -1q-7 0 -14 -0.5t-13.5 -1t-13 -1.5t-13.5 -3q13 70 37.5 124.5t58 86t70.5 31.5zM218 194q-35 0 -59.5 28t-24.5 68t24.5 68t59.5 28q23 0 42 -12.5t30.5 -35t11.5 -48.5
q0 -40 -24.5 -68t-59.5 -28zM875 212h-488q-22 -1 -37 12.5t-18.5 33t0 39t18.5 33t37 13.5l488 1q38 0 50 -42t-11 -71q-16 -18 -39 -19zM1044 196q-35 0 -59.5 28t-24.5 68q0 26 11 48t30.5 35t41.5 13q35 0 60 -28t25 -68q0 -13 -3 -25.5t-8.5 -23t-13 -19.5t-17 -15
t-20.5 -9.5t-22 -3.5z" />
    <glyph glyph-name="uniE605" unicode="&#xe605;" 
d="M891 64h-508q-9 0 -17 -4.5t-12.5 -12.5t-4.5 -18q0 -14 10 -24t24 -10h508q14 0 24.5 10t10.5 24.5t-10.5 24.5t-24.5 10zM891 334h-508q-4 0 -8 -0.5t-7 -2.5t-6 -4.5t-5.5 -5.5t-4.5 -6t-2.5 -7t-0.5 -8q0 -15 10 -25t24 -10h508q14 0 24.5 10t10.5 24.5t-10.5 24.5
t-24.5 10zM383 535h508q9 0 17 4.5t13 12.5t5 18q0 14 -10.5 24.5t-24.5 10.5h-508q-5 0 -10.5 -2t-10 -5t-7.5 -7.5t-4.5 -9.5t-1.5 -11q0 -15 10 -25t24 -10zM220 648h-86q-10 0 -18 -4.5t-12.5 -12.5t-4.5 -18v-86q0 -15 10 -25t25 -10h86q7 0 13.5 2.5t11 7.5t7.5 11.5
t3 13.5v86q0 15 -10.5 25t-24.5 10zM220 378h-86q-15 0 -25 -10.5t-10 -24.5v-87q0 -14 10 -24t25 -10h86q14 0 24.5 10t10.5 24v87q0 14 -10.5 24.5t-24.5 10.5zM220 107h-86q-7 0 -13.5 -2.5t-11.5 -7t-7.5 -11t-2.5 -13.5v-87q0 -14 10 -24.5t25 -10.5h86q5 0 9.5 1.5
t8 3.5t7 5.5t5.5 7t3.5 8t1.5 9.5v87q0 14 -10.5 24t-24.5 10z" />
    <glyph glyph-name="uniE606" unicode="&#xe606;" 
d="M284 638l57 59l399 -397l-399 -397l-57 59l336 338z" />
    <glyph glyph-name="uniE607" unicode="&#xe607;" 
d="M776 -60l-45 45q-30 -12 -65 -19q-22 -2 -45 0h-3q-87 8 -144.5 69.5t-57.5 145.5q0 88 65 154q22 20 47 34.5t53.5 21.5t59.5 7q65 0 133 -53v307q0 14 -5.5 19.5t-18.5 5.5h-617q1 15 14 27.5t25 16.5l12 5h590q10 0 19 -4t14 -9.5t8.5 -11.5t4.5 -10l1 -4v-367
q0 -1 2.5 -4t6.5 -6l8 -6l5 -6l3 -2v410q0 14 -10 34q-10 17 -31 17h-621q-27 0 -48 -6.5t-30.5 -15.5t-15.5 -18t-7 -15l-1 -7v-784q0 -9 2.5 -14.5t7.5 -8t14 -2.5h639h86l-38 37zM236 574h382v-75h-382v75zM991 -114l-203 195q33 46 33 100q0 73 -53.5 124.5t-128.5 51.5
q-37 0 -70.5 -13.5t-58 -37t-39 -55.5t-14.5 -68q0 -45 21.5 -83.5t59 -63t83.5 -29.5q22 -2 36 0q48 6 84 31l203 -195q9 -9 22.5 -9t22.5 9q11 9 11.5 21.5t-9.5 21.5zM639 50q-57 0 -97 39t-40 94q0 54 40 92.5t97 38.5t97 -38.5t38 -92.5q1 -27 -9.5 -51.5t-28.5 -42.5
t-43.5 -28.5t-53.5 -10.5z" />
    <glyph glyph-name="uniE608" unicode="&#xe608;" 
d="M950 -56q-2 12 -12 82q-1 13 -4.5 36.5t-4.5 34.5q-1 6 -5 36.5t-7 46.5q0 5 -3.5 31t-5.5 40q-2 15 -6 43.5t-6 39.5q-1 10 -2.5 22.5t-3.5 25.5t-3 23q-10 70 -12 83q-1 12 -4.5 35.5t-4.5 35.5q-1 9 -3.5 26t-4.5 30.5t-3 26.5q-2 8 -5.5 34t-4.5 40q-2 9 -5.5 16.5
t-10.5 13.5l-4 2q-2 1 -4 1t-4.5 0.5t-4.5 1.5h-720q-2 -1 -5 -1.5t-5.5 -1t-4.5 -1.5q-4 -3 -7 -6t-5.5 -6.5t-4 -7.5t-1.5 -9v-830q2 -15 12 -22q11 -9 23 -9q20 -2 569 -2q1 1 3 1q7 0 12.5 3.5t9.5 10.5q8 11 8 27v177q0 122 -1 187q0 6 0.5 17.5t0.5 20t-1 16.5
q1 -4 19 -112q4 -26 12 -75t9 -54q19 -115 20 -122t3.5 -20t4 -23.5t3.5 -19.5q3 -28 31 -34h127q7 1 12 3t9 6q7 8 9 22v13q-1 7 -2 22t-2 23zM96 709q0 4 5 4h252q5 0 5 -4q-1 -36 0 -65q0 -6 -6 -5h-125h-31h-32h-30h-32q-6 -1 -6 5v22v21v22zM352 -107h-125h-31h-32h-30
h-32q-5 0 -6 3v2q1 27 0 65q0 4 5 4h252q4 -1 5 -5q-1 -37 0 -64q0 -3 -1 -4t-5 -1zM358 10q0 -6 -6 -6q-125 1 -250 0q-6 0 -6 6v293v292q0 6 7 6h249q6 0 6 -6q-1 -292 0 -585zM395 709q0 4 4 4h252q5 0 5 -4v-33v-32q0 -6 -5 -5h-126h-25h-26h-24h-26h-24q-5 -1 -5 5v65z
M656 -103q0 -4 -5 -4h-84h-84h-84q-4 0 -4 4v65q0 5 5 5h125h31h33h29h33q5 0 5 -5v-65zM649 4q-122 1 -248 0q-6 0 -6 6v585q0 6 6 6h62h62h63h62q6 0 6 -6v-293v-291q0 -7 -7 -7zM839 -107h-16h-4q-6 0 -9 -0.5t-4 1t-2 4.5q-4 32 -15 114q-4 24 -10 68.5t-7 55.5
q-3 24 -5.5 42t-5.5 40.5t-6 41.5q-2 16 -5.5 39.5t-6 45t-5.5 39.5q-2 19 -17 124q-13 98 -17 124q-8 60 -11 78q0 2 1 2.5t3 0.5h5h4h6h4h4h6q5 1 5 -5l2 -12q1 -6 2 -13.5t1.5 -12t1.5 -13t2 -12.5q1 -10 2.5 -21t3 -20.5t3 -20.5t2.5 -20.5t2.5 -21t3.5 -20.5
q1 -10 5 -38t6.5 -47.5t5.5 -38.5q2 -16 7.5 -58.5t8.5 -64.5q3 -19 6 -40t6 -46t5 -39q1 -7 7.5 -53.5t9.5 -70.5q13 -94 18 -129q-1 -3 -3 -3zM914 -107h-16h-15q-3 0 -4 4q-1 6 -1.5 11.5t-1.5 11t-1.5 11t-1.5 11.5t-2 11q-2 20 -8 61.5t-9 62.5q-3 22 -8.5 63.5
t-7.5 59.5q-3 20 -8.5 61.5t-8.5 63.5q-4 23 -9.5 67t-7.5 56q-2 16 -3.5 25.5t-3.5 24t-3.5 25.5t-3 24t-3.5 25q-4 30 -8.5 61t-8.5 63q0 1 -0.5 3.5t-0.5 3.5t-0.5 3t-0.5 4t0.5 2.5t2.5 0.5h16h3h4h2h4q5 1 6 -5q2 -13 7 -55q2 -11 3.5 -24.5t3.5 -25.5t3.5 -24
t3.5 -25.5t3 -24.5q3 -23 9 -65t8 -58q3 -21 8.5 -62.5t8.5 -62.5q3 -23 9 -65.5t8 -57.5q10 -74 17 -124q7 -57 17 -124q1 -12 2 -14q0 -3 -3 -3zM226 489h-21h-23h-20h-23q-3 0 -4.5 1t-0.5 5v28q0 4 4 4h178q4 -2 4 -4v-29q0 -3 -1 -4t-4 -1h-89zM227 452h88q3 0 4 -1
t1 -4v-28q0 -4 -4 -4h-178q-4 2 -4 4v28q-1 5 4 5h23h21h24h21zM226 340h-87q-3 0 -4.5 1t-0.5 5v27q0 3 0.5 4t3.5 1q90 -1 178 0q4 -2 4 -5v-13v-15q0 -5 -5 -5h-23h-20h-24h-22zM526 527h21h23h21h22q6 0 6 -6q-1 -11 0 -28q0 -4 -5 -4h-20h-19h-20h-20h-20h-19h-20h-20
h-20q-4 0 -4 5v28q0 5 5 5h89zM526 452h21h23h21h22q4 0 5 -1t1 -4q-1 -11 0 -28q0 -4 -5 -4h-88h-90q-2 0 -3 0.5t-1 3.5v15v13q0 5 5 5h89zM525 340h-13h-12h-12h-13h-13h-12h-13q-5 0 -5 6v27q2 4 4 5h45h45h44h44q5 0 5 -5q-1 -16 0 -28q0 -5 -5 -5h-18h-18h-18h-18h-17
z" />
    <glyph glyph-name="uniE609" unicode="&#xe609;" 
d="M427 811q-71 0 -121 -50t-50 -121t50 -121t120.5 -50t120.5 50t50 121q0 35 -13.5 66.5t-36 54.5t-54.5 36.5t-66 13.5zM427 384q-196 0 -305 -120q-26 -28 -37 -51v-85h379q-8 20 -12 41.5t-4 43.5q0 96 67 164q-8 2 -16.5 3t-17 1.5t-17.5 1t-18.5 1t-18.5 0.5z
M682.5 384q-70.5 0 -120.5 -50t-50 -120.5t50 -120.5t121 -50q44 0 85 24l97 -98l62 62l-98 97q8 13 13 26.5t8 28.5t3 30q0 71 -50 121t-120.5 50zM683 299q17 0 33 -7t27.5 -18t18 -27t6.5 -34q0 -35 -25 -60t-60.5 -25t-60.5 25t-25 60q0 24 11.5 43.5t31 31t43.5 11.5z
" />
    <glyph glyph-name="uniE60A" unicode="&#xe60a;" 
d="M530 164v-223q0 -7 4 -11q3 -2 5.5 -3.5t5.5 -1.5h113q6 0 11 5q2 2 3 5t1 6v297l-114 -99zM47 -59q0 -7 4.5 -11.5t11.5 -4.5h113q2 0 3.5 0.5t3.5 1.5t3 3q5 4 5 11v227l-144 -118v-109zM289 249v-308q0 -7 4 -11q2 -2 5 -3.5t6 -1.5h113q6 0 10.5 4.5t4.5 11.5v306
l-72 61zM771 -59q0 -7 4.5 -11.5t10.5 -4.5h113q3 0 6 1.5t5 3.5q5 4 5 11v505l-144 -124v-381zM746 708q-1 0 -2.5 -1t-2 -2.5t0 -3t1.5 -2.5l108 -106l-292 -252l-199 169l-314 -259v-112l314 259l199 -169l352 304l90 -88q2 -2 5 -1q3 2 3 5v253l-1 4q-1 1 -2 1.5t-2 0.5
h-258z" />
    <glyph glyph-name="uniE60B" unicode="&#xe60b;" 
d="M898 812l68 -572l-76 -8l-60 510h-636l-60 -510l-76 8l67 572h773zM256 684h512v-64h-512v64zM256 556h512v-64h-512v64zM256 428h512v-64h-512v64zM256 300h512v-64h-512v64zM992 172h-960q-13 0 -19.5 -9t-2.5 -21l108 -324q4 -12 16.5 -21t25.5 -9h704q13 0 25.5 9
t16.5 21l108 324q7 22 -13 28q-4 2 -9 2zM640 44h-256v64h256v-64z" />
    <glyph glyph-name="uniE60C" unicode="&#xe60c;" 
d="M708 681l40 -39l-220 -198l-120 119l-220 -198l40 -40l180 158l120 -118l261 237l40 -39v118h-121zM358 185h-98q-12 0 -20.5 -8.5t-8.5 -21.5v-176q0 -12 8.5 -21t20.5 -9h98q12 0 21 9t9 21v176q0 6 -2.5 11.5t-6.5 9.5t-9.5 6.5t-11.5 2.5zM579 301h-99q-8 0 -14.5 -4
t-10.5 -10.5t-4 -14.5v-294q0 -6 2 -11t6 -9t9.5 -6.5t11.5 -2.5h99q12 0 21 8.5t9 20.5v294q0 12 -9 20.5t-21 8.5zM799 400h-98q-6 0 -11.5 -2.5t-9.5 -6t-6 -9t-2 -11.5v-393q0 -12 8.5 -20.5t20.5 -8.5h98q12 0 20.5 8.5t8.5 20.5v393q0 12 -8.5 20.5t-20.5 8.5z" />
    <glyph glyph-name="uniE60D" unicode="&#xe60d;" 
d="M340 -140q-89 36 -157 106q-64 66 -100 153.5t-36 185t36 185t100 153.5q63 64 149 97.5t180 33.5t180 -33.5t149 -97.5q31 -33 56 -71t43 -81t27.5 -90t9.5 -96q0 -98 -36 -185.5t-100 -153.5q-68 -70 -157 -106q-28 -12 -56.5 -19.5t-57.5 -11t-58 -3.5q-89 0 -172 34z
M512 679q-49 0 -96 -11.5t-90 -35.5t-76 -58q-63 -64 -90 -150q-8 -28 20 -27q26 1 75.5 2.5t91.5 2.5t53 1q-37 -43 -37 -102q0 -21 5 -40.5t15 -36.5t23 -32q15 -15 33 -25q34 -20 73 -20q8 0 15.5 1t15 2.5t14.5 4t14 5.5t14 7q9 5 17 11.5t16 13.5q20 22 31.5 50
t11.5 59q0 58 -37 102q13 -1 100 -2.5t120 -3.5q14 0 19 6.5t1 20.5q-27 86 -90 150q-33 34 -76 58t-90 35.5t-96 11.5zM596 388q-33 33 -84 33t-84 -33q-35 -36 -35 -87q0 -16 4.5 -32t12 -29.5t18.5 -24.5l4 -4l4 -3q1 -2 3 -4l4 -2q2 -2 4.5 -3.5t4.5 -2.5t4 -3
q13 -7 27.5 -10.5t28.5 -3.5t28.5 3.5t27.5 10.5q5 3 10 6.5t9.5 7.5t8.5 8q16 17 25.5 39t9.5 47t-9.5 47.5t-25.5 39.5zM534 256q27 14 27 45q0 16 -8.5 28.5t-21.5 18.5q-19 8 -38 0q-13 -6 -21.5 -18.5t-8.5 -28.5q0 -31 27 -45q22 -11 44 0zM589 -70q53 11 100.5 37.5
t84.5 65.5q82 85 103 201q3 15 -2 21.5t-17 5.5q-28 1 -50 0t-42 -5q-78 -15 -113 -58t-49 -136q-6 -37 -13 -113q0 -2 -0.5 -3.5t-0.5 -3.5v-4q0 -2 -0.5 -4.5t-0.5 -3.5zM435 -70q-1 6 -2 19t-2 22t-2.5 22t-2.5 23.5t-2.5 23t-3.5 22.5q-14 93 -49 136t-113 58
q-33 7 -92 5q-12 1 -17 -5.5t-2 -21.5q21 -116 103 -201q78 -80 185 -103z" />
    <glyph glyph-name="uniE60E" unicode="&#xe60e;" 
d="M64 -78h895v-70h-895v70zM64 747h70v-895h-70v895zM234 412h165v-448h-165v448zM738 524h165v-560h-165v560zM483 577h164v-613h-164v613z" />
    <glyph glyph-name="uniE610" unicode="&#xe610;" 
d="M183 130q8 0 14 5l162 163l127 -128l277 277l74 -75l101 101q4 4 5.5 9t0 10.5t-5.5 9t-9 5t-10 0t-9 -5.5l-73 -72l-74 74l-277 -276l-127 127l-190 -190q-3 -3 -4.5 -7t-1.5 -7.5t1.5 -7.5t4.5 -7q6 -5 14 -5zM972 -59q0 -8 -6 -14t-14 -6h-900v743q0 8 6 14t14 6
t14 -6t6 -14v-703h860q8 0 14 -6t6 -14z" />
    <glyph glyph-name="uniE611" unicode="&#xe611;" horiz-adv-x="1152" 
d="M768 41v53q35 20 64 57t46.5 85t17.5 96q0 45 -0.5 67t-4 59t-10.5 55t-21 42.5t-34 36t-51 20t-71 8.5t-71 -8.5t-51 -20t-34 -36t-21 -42.5t-10.5 -55t-4 -59t-0.5 -67q0 -48 17.5 -96t46.5 -85t64 -57v-53q-80 -6 -151 -28.5t-122.5 -56t-81 -77t-29.5 -91.5h896
q0 97 -113 170q-110 70 -271 83zM327 17q84 54 200 80q-23 27 -41 59q-46 85 -46 176q0 57 1 87t8 73t22 74q44 97 159 119q-14 62 -55.5 94.5t-126.5 32.5q-40 0 -71 -8.5t-51 -20t-34 -36t-21 -42.5t-10.5 -55t-4 -59t-0.5 -67q0 -73 37 -140t91 -98v-53
q-107 -8 -195 -43.5t-138.5 -91t-50.5 -118.5h279q22 20 48 37z" />
    <glyph glyph-name="uniE612" unicode="&#xe612;" 
d="M512 -224q-139 0 -257 68.5t-186.5 186.5t-68.5 257t68.5 257t186.5 186.5t257 68.5t257 -68.5t186.5 -186.5t68.5 -257t-68.5 -257t-186.5 -186.5t-257 -68.5zM791 388q-3 6 -9.5 10t-13.5 4h-170l-6 18q-6 19 -15 46t-18 53.5t-15 45.5l-7 19q-4 9 -14 14h1h-1
q-1 0 -1.5 0.5t-1.5 0.5h-1q-5 1 -7 1h-4q-1 0 -3 -1h-1l-2 -1h-1h-1h1q-10 -5 -14 -14q-28 -83 -61 -181h-26q-27 0 -58.5 -0.5t-57.5 -0.5h-28q-7 0 -13 -3.5t-10 -10.5q-7 -10 -4.5 -22t12.5 -19q54 -33 129 -87q0 -1 -3 -11t-7.5 -26.5t-10.5 -36.5l-12 -40
q-6 -20 -11 -36.5t-8 -27.5l-3 -10q-5 -10 -1 -21t15 -16q7 -3 9 -3h2q9 0 17 5q155 108 155 109q37 -27 75.5 -54t58.5 -41l21 -14q8 -5 17 -5l3 -1l1 1l7 3q11 5 15 16t-1 21q-3 11 -7.5 29.5t-19 68t-28.5 90.5l32 22q33 21 65 43l32 22q10 7 12.5 19t-4.5 22zM502 598
q1 1 2 1h1q4 1 7 1t7 -1l3 -1h1h-22h1v0z" />
    <glyph glyph-name="uniE613" unicode="&#xe613;" 
d="M467 727q-62 0 -120.5 -16.5t-108 -45.5t-91.5 -71t-71 -91.5t-45.5 -108.5t-16.5 -120q0 -92 36 -176t96.5 -144.5t144.5 -96.5t176 -36t176 36t144.5 96.5t96.5 144.5t36 176h-453v453zM515 781v-453l310 329q-134 124 -310 124zM1012 302q0 96 -37.5 181.5
t-105.5 148.5l-310 -330v-3h453v3zM1012 302z" />
    <glyph glyph-name="uniE614" unicode="&#xe614;" 
d="M329 128q0 -15 -11 -26t-25.5 -10.5t-25.5 11t-11 25.5t11 25.5t25.5 11t25.5 -10.5t11 -26zM914 93q0 -69 -41.5 -108.5t-110.5 -39.5h-500q-69 0 -110.5 39.5t-41.5 108.5q0 39 3 75t13.5 79t27 75.5t46.5 58.5t69 35q-13 -30 -13 -69v-116q-33 -11 -53 -39.5
t-20 -63.5q0 -46 32 -78t77.5 -32t77.5 32t32 78q0 35 -20 63.5t-53 39.5v116q0 36 14 54q76 -60 169 -60t169 60q14 -18 14 -54v-36q-61 0 -104 -43t-43 -103v-51q-18 -17 -18 -41q0 -23 16 -39t39 -16t39 16t16 39q0 24 -18 41v51q0 29 21.5 51t51 22t51.5 -22t22 -51v-51
q-18 -17 -18 -41q0 -23 16 -39t38.5 -16t38.5 16t16 39q0 24 -18 41v51q0 38 -19.5 72t-53.5 54q0 6 0.5 24.5t0 27t-1.5 23.5t-4 27t-8 23q39 -9 69 -35t46.5 -58.5t27 -75.5t13.5 -79t3 -75zM731 603.5q0 -90.5 -64 -155t-155 -64.5t-155 64.5t-64 155t64 155t155 64.5
t155 -64.5t64 -155z" />
    <glyph glyph-name="uniE615" unicode="&#xe615;" 
d="M259 88q-14 0 -24 10t-10 24t10 24l534 535q10 10 24.5 10t24.5 -10t10 -24t-10 -24l-535 -535q-5 -5 -11 -7.5t-13 -2.5zM856 219q0 66 -46.5 112.5t-112.5 46.5q-19 0 -36.5 -4t-33.5 -12t-29.5 -19t-24.5 -24.5t-19 -29.5t-12 -33.5t-4 -36.5q0 -32 12.5 -61.5t34 -51
t51 -34t61.5 -12.5q43 0 79.5 21t58 58t21.5 80zM788 219q0 -38 -26.5 -64.5t-64.5 -26.5t-64.5 26.5t-26.5 64.5t26.5 64.5t64.5 26.5t64.5 -26.5t26.5 -64.5zM515 560q0 66 -47 113t-112.5 47t-112.5 -47t-47 -113t47 -112.5t112.5 -46.5t112.5 46.5t47 112.5zM447 560
q0 -18 -7.5 -35t-19.5 -29t-29 -19.5t-35.5 -7.5t-35.5 7.5t-29 19.5t-19 29t-7 35q0 38 26.5 64.5t64.5 26.5q14 0 28 -4.5t25.5 -13t19.5 -19.5t13 -25t5 -29z" />
    <glyph glyph-name="uniE616" unicode="&#xe616;" 
d="M677 627q-13 10 -30 7.5t-28 -16.5l-111 -148l-110 148q-7 10 -17.5 14t-21.5 3t-20 -8q-13 -11 -15.5 -28t7.5 -31l98 -131h-50q-17 0 -29 -12t-12 -29q0 -12 5.5 -21.5t15 -15t20.5 -5.5h88v-24h-88q-11 0 -20.5 -6t-15 -15.5t-5.5 -20.5q0 -17 12 -29.5t29 -12.5h88
v-65q0 -11 5.5 -20.5t15 -15t21 -5.5t21 5.5t15 15t5.5 20.5v65h87q9 0 16.5 3.5t13 9t9 13t3.5 16.5q0 11 -5.5 20.5t-15 15.5t-21.5 6h-87v24h87q12 0 21.5 5.5t15 15t5.5 21.5q0 17 -12.5 29t-29.5 12h-49l98 132q10 13 7.5 30.5t-16.5 27.5v0zM360 722l9 -9q6 -6 14 -8
t15.5 0t13.5 8q9 9 9 22t-9 22l-19 20q102 33 212 6.5t190 -106.5q99 -98 116.5 -236.5t-50.5 -253.5q-2 -5 -2.5 -10.5t1 -11t5.5 -9.5t10 -6.5t11.5 -2t11 4t8.5 9.5q37 65 51.5 139.5t5 147t-43 142t-88.5 124.5q-86 86 -200.5 116.5t-228.5 2.5l10 10q9 9 9 22t-9 22
q-6 6 -13.5 8t-15.5 0t-14 -8l-65 -65q-5 -6 -7.5 -13t-0.5 -15l64 -72v0zM718 -4l-64 65q-9 9 -22 9t-22 -9q-4 -3 -6 -7.5t-2.5 -9t0 -9.5t2.5 -9.5t6 -7.5l15 -15q1 -2 0.5 -4t-2.5 -3q-101 -31 -209 -4t-187 106q-92 91 -113.5 219t31.5 240q8 18 -6 33q-9 9 -21.5 6.5
t-17.5 -13.5q-20 -43 -31 -88.5t-12.5 -91.5t6 -92.5t24 -90t43 -84.5t61.5 -75q84 -83 194.5 -114.5t220.5 -8.5q3 1 4.5 -1.5t-0.5 -5.5q-9 -9 -9 -21.5t9 -21.5t22 -9t22 9l64 65q22 22 0 43v0z" />
    <glyph glyph-name="uniE617" unicode="&#xe617;" 
d="M853 0q-147 0 -281.5 57.5t-231.5 154.5t-154.5 231.5t-57.5 281.5q0 18 12.5 30.5t30.5 12.5h170q18 0 30.5 -12.5t12.5 -30.5v-170q0 -18 -12 -30l-89 -90q46 -90 118 -162t163 -119l89 89q5 6 13 9.5t17 3.5h170q18 0 30.5 -12.5t12.5 -30.5v-170q0 -18 -12.5 -30.5
t-30.5 -12.5zM525 516v87q86 0 146.5 -60.5t60.5 -146.5v0h-87v0q0 17 -4.5 32.5t-12 28.5t-18.5 24t-24 18.5t-28.5 12t-32.5 4.5zM808 396v0q0 117 -83 200t-200 83v87q101 0 186 -49.5t134.5 -134.5t49.5 -186v0h-87z" />
    <glyph glyph-name="uniE618" unicode="&#xe618;" 
d="M213 654q0 -22 -15 -38t-36 -16h-110q-21 0 -36 16t-15 38q0 15 6.5 27t18.5 19.5t26 7.5h110q21 0 36 -16t15 -38zM213 409q0 -22 -15 -38t-36 -16h-110q-11 0 -20.5 4.5t-16 11.5t-10.5 17t-4 21q0 22 15 38t36 16h110q14 0 25.5 -7.5t18.5 -19.5t7 -27zM213 164
q0 -11 -4 -21t-11 -17t-16.5 -11.5t-19.5 -4.5h-110q-11 0 -20.5 4.5t-16 11.5t-10.5 17t-4 21q0 23 15 38.5t36 15.5h110q21 0 36 -15.5t15 -38.5zM902 149l-20 -17q-10 -11 -24 -21.5t-45 -22.5t-65 -12q-135 -2 -281 167t-126 304q12 81 74 126l20 17q13 12 26 14
t24.5 -5t21.5 -18t21 -28l16 -25q15 -24 21.5 -42.5t3.5 -38.5t-21 -35l-22 -20q-2 -1 -10 -6.5t-12 -10t-10 -13.5t-4.5 -21t7 -28.5t21 -39.5t39.5 -51q28 -32 52 -51.5t38.5 -26.5t29 -5t20 5.5t14.5 13.5l9 9l23 20q7 7 15.5 10.5t16.5 5t16 0.5t16 -4t16.5 -8t16 -11
t16.5 -13l23 -20q21 -18 31.5 -32.5t10 -32t-18.5 -33.5zM863 896h-596q-32 0 -60.5 -12t-49.5 -32t-34.5 -47.5t-15.5 -58.5h55q36 0 62 -27t26 -65t-26 -65t-62 -27h-55v-60h55q36 0 62 -27t26 -65t-26 -64.5t-62 -26.5h-55v-61h55q36 0 62 -27t26 -64.5t-26 -64.5
t-62 -27h-55v-42q0 -67 46.5 -114t113.5 -47h596q67 0 113.5 47t46.5 114v702q0 67 -46.5 114t-113.5 47z" />
  </font>
</defs>
</svg>
